<svg version="1" xmlns="http://www.w3.org/2000/svg" width="933.333" height="933.333" viewBox="0 0 700.000000 700.000000"><path d="M337.7 45.6c-.1.1-3.6.5-7.7.8-11.9 1.1-13.8 1.4-26 4.2-6.3 1.5-11.5 2.6-11.5 2.5 0-.1-4 1.4-9 3.4-4.9 1.9-9.3 3.5-9.7 3.5-1.7 0-20.8 9.5-28.7 14.2-22.2 13.2-43.6 32.1-57.3 50.5-2.4 3.2-4.6 6-4.9 6.3-1.6 1.2-13.6 21.3-17.6 29.5-5.5 11.3-12.5 30.4-15.1 41.5-1.9 7.9-2.4 10.2-3.7 17-1.1 5.5-1.9 17.1-1.9 28.7l-.1 12.3-7.5 3.6c-27 12.9-51.2 32.1-70.5 55.9-3.9 4.8-17.5 24.1-17.5 24.9 0 .2-1.7 3.4-3.8 7.2-10.9 19.9-20.5 50.2-22.7 71.4-.4 3.6-.9 6.8-1.1 7.2-.6.9-.6 31.5 0 36.3.3 2.2.8 6.7 1.1 10 .4 3.2.8 6.2 1.1 6.6.2.4.6 2.4 1 4.4.3 2.1.8 4.7 1 5.9.2 1.1.6 3.4.9 4.9 1.3 7.1 9.1 28.2 14.4 39.1C49 554 57.6 567.6 67.8 580c4.8 5.9 21.4 22.4 27.7 27.6 7.2 5.9 23.1 16.7 29.9 20.3 3.3 1.7 6.4 3.5 7 4 .6.4 6.5 3.1 13.1 5.9 27.7 11.6 51.5 16.6 80.5 16.6 14.9 0 24.5-.9 40-3.8 27.9-5.3 50.3-14.5 75.7-31.4l8.3-5.4 10.7 7c23.3 15.1 50.5 26.2 74.3 30.1 3.6.6 7.6 1.3 9 1.6 8.2 1.8 37.2 2.4 49 1.1 23-2.5 45.6-8.4 63.3-16.5 3.7-1.7 6.9-3.1 7.1-3.1 1 0 17.9-9.9 24.6-14.3 11.7-7.8 20.6-15.2 32-26.6 33.6-33.8 54.1-78.2 58.6-126.6.6-6.5.6-34.4 0-35.4-.2-.3-.7-3.8-1.1-7.6-.3-3.9-1.5-11.3-2.6-16.5-13.1-61.6-52.2-112.8-108.2-141.5l-11.2-5.8-.1-11.1c0-10.9-.8-21.6-1.9-28.6-7.8-46-29.3-87.1-60.9-116.9-3.3-3.1-7-6.5-8.2-7.7-8.6-8.2-32.2-23.6-46.4-30.2-9.9-4.6-29.4-11.9-34.1-12.7-1.8-.3-3.5-.8-3.9-1-.7-.4-1.6-.6-13.5-2.9-11.7-2.2-19.3-2.9-34.8-3.1-7.5-.1-13.8-.1-14 .1z"/></svg>