<svg xmlns="http://www.w3.org/2000/svg" viewBox="0 0 249.4 26.2">
    <title>Fathom Analytics</title>
    <path d="M4.129 20.74v-7.766h8.025V9.706H4.129V4.415h8.791v-3.4H0V20.74zm14.615.232a5.042 5.042 0 004.471-2.475h.082v2.243h3.855V10.664c0-2.953-2.447-4.895-6.207-4.895-3.883 0-6.3 1.955-6.453 4.8h3.65a2.376 2.376 0 012.625-1.818c1.5 0 2.461.793 2.461 2.16v.971l-3.691.219c-3.65.219-5.7 1.764-5.7 4.43-.001 2.637 2.122 4.441 4.907 4.441zm1.315-2.884c-1.354 0-2.256-.684-2.256-1.777 0-1.039.848-1.709 2.338-1.818l3.09-.191v1.066a2.927 2.927 0 01-3.172 2.72zm10.73-15.381v3.377h-2.065v3.008h2.065v7.7c0 2.857 1.34 4.006 4.785 4.006a9.178 9.178 0 001.9-.164v-2.943a6.461 6.461 0 01-.971.068c-1.176 0-1.723-.533-1.723-1.654V9.091h2.707V6.083h-2.706V2.706zm8.982 18.033h3.988v-8.367c0-1.928 1.107-3.254 2.994-3.254 1.818 0 2.748 1.148 2.748 3.035v8.586h3.992v-9.434c0-3.391-1.859-5.5-5.113-5.5a4.655 4.655 0 00-4.607 2.885h-.082V1.007h-3.92zm23 .314c4.43 0 7.26-2.83 7.26-7.656 0-4.758-2.871-7.629-7.26-7.629s-7.26 2.885-7.26 7.629c-.004 4.813 2.827 7.656 7.256 7.656zm0-3.049c-1.969 0-3.213-1.654-3.213-4.594 0-2.912 1.271-4.594 3.213-4.594s3.2 1.682 3.2 4.594c-.005 2.94-1.249 4.595-3.204 4.595zm9.307 2.735h3.992v-8.846a2.548 2.548 0 012.543-2.789 2.238 2.238 0 012.365 2.5v9.135h3.842v-8.9a2.489 2.489 0 012.516-2.734c1.545 0 2.393.93 2.393 2.625v9.009h3.992V10.732a4.6 4.6 0 00-4.8-4.922 4.642 4.642 0 00-4.553 3.008h-.082a3.894 3.894 0 00-4.087-3.008 4.3 4.3 0 00-4.184 2.93h-.082V6.088h-3.855zm42.971 0h4.389l-6.863-19.729h-4.854l-6.85 19.729h4.238l1.5-4.785h6.932zm-5.018-15.955h.1l2.529 8.08h-5.154zm11.074 15.955h3.992v-8.408a2.9 2.9 0 012.926-3.213c1.791 0 2.693 1.094 2.693 3.008v8.613h3.992v-9.447c0-3.432-1.832-5.482-5.086-5.482a4.631 4.631 0 00-4.58 2.885h-.083V6.085h-3.855zm20.48.232a5.042 5.042 0 004.474-2.474h.082v2.242h3.855V10.664c0-2.953-2.447-4.895-6.207-4.895-3.883 0-6.3 1.955-6.453 4.8h3.65a2.376 2.376 0 012.625-1.818c1.5 0 2.461.793 2.461 2.16v.971l-3.691.219c-3.65.219-5.7 1.764-5.7 4.43-.004 2.637 2.116 4.441 4.905 4.441zm1.313-2.885c-1.354 0-2.256-.684-2.256-1.777 0-1.039.848-1.709 2.338-1.818l3.09-.191v1.066a2.927 2.927 0 01-3.172 2.721zm9.761 2.653h3.992V1.011h-3.992zm8.572 5.428c3.732 0 5.578-1.354 6.822-5.113l5.045-14.971h-4.211l-3.102 11.456h-.082l-3.117-11.457h-4.375l5.099 14.657c.014.068-.137.643-.137.711-.273 1.162-1 1.627-2.447 1.627-.15 0-.875-.014-1.012-.041v3.09c.137.027 1.368.041 1.518.041zm14.4-23.461v3.377h-2.064v3.008h2.064v7.7c0 2.857 1.34 4.006 4.785 4.006a9.178 9.178 0 001.9-.164v-2.943a6.461 6.461 0 01-.971.068c-1.176 0-1.723-.533-1.723-1.654V9.091h2.707V6.083h-2.707V2.706zm10.938 1.395a2.063 2.063 0 002.078-2.051A2.054 2.054 0 00186.569 0a2.054 2.054 0 00-2.078 2.051 2.063 2.063 0 002.075 2.05zm-1.985 16.638h3.992V6.084h-3.992zm19.961-9.2c-.178-3.322-2.693-5.77-6.658-5.77-4.389 0-7.191 2.926-7.191 7.629 0 4.785 2.8 7.656 7.219 7.656 3.855 0 6.439-2.229 6.645-5.687h-3.721a2.757 2.757 0 01-2.88 2.556c-1.982 0-3.213-1.641-3.213-4.525 0-2.83 1.23-4.5 3.2-4.5a2.842 2.842 0 012.9 2.639zm1.7-1.148c0 2.2 1.436 3.623 4.266 4.225l2.5.52c1.436.328 1.941.766 1.941 1.545 0 .957-.93 1.572-2.434 1.572-1.586 0-2.5-.684-2.748-1.969h-3.9c.26 2.885 2.6 4.771 6.645 4.771 3.773 0 6.412-1.9 6.412-4.785 0-2.146-1.258-3.35-4.32-3.992l-2.502-.539c-1.477-.314-2.023-.82-2.023-1.572 0-.971.916-1.6 2.3-1.6a2.237 2.237 0 012.488 2h3.678c-.082-2.871-2.406-4.8-6.166-4.8-3.736.001-6.142 1.833-6.142 4.622z" fill="#2b2d2f"/>
    <path d="M229.359 7.407l10 3.333-2-6z" fill="#a89ef5"/>
    <path d="M246.026 10.74l3.333-10-10 3.333-2 .667 2 6 6 2z" fill="#533feb"/>
    <path d="M245.359 12.74l-6-2 3.333 10z" fill="#8efdd2"/>
</svg>
