<svg xmlns="http://www.w3.org/2000/svg" viewBox="0 0 206.8 74">
  <title>Laravel Mix Tailwind CSS</title>
  <path fill="#6da5e5" d="M65 26.1V25C65 11.2 53.8 0 40 0S15 11.2 15 25v1.1c8.4-3.7 17.9-2.4 25 2.9 7.1-5.3 16.6-6.6 25-2.9z"/>
  <path fill="#294ba5" d="M30 47.9c3.1 1.4 6.5 2.1 10 2.1s6.9-.7 10-2.1c-.2-4-1.3-7.9-3.3-11.4-1.7-2.9-4-5.5-6.7-7.5-2.7 2-5 4.6-6.7 7.5-2 3.5-3.1 7.4-3.3 11.4z"/>
  <path fill="#2b9bda" d="M50 47.9c8.5-3.7 14.6-12.1 15-21.9-8.4-3.7-17.9-2.4-25 2.9 2.7 2 5 4.6 6.7 7.5 2 3.6 3.1 7.5 3.3 11.5z"/>
  <path fill="#6750ae" d="M30 47.9C21.5 44.2 15.4 35.8 15 26c8.4-3.7 17.9-2.4 25 2.9-2.7 2-5 4.6-6.7 7.5-2 3.6-3.1 7.5-3.3 11.5z"/>
  <path fill="#6074b8" d="M50 47.9C50.3 56 46.7 64 40 69c-6.7-5-10.3-13-10-21.1 3.1 1.4 6.5 2.1 10 2.1s6.9-.7 10-2.1z"/>
  <path fill="#66f1f3" d="M40 69c.8.6 1.6 1.1 2.5 1.6 12 6.9 27.2 2.8 34.2-9.2 6.9-12 2.8-27.2-9.2-34.2-.8-.5-1.7-.9-2.5-1.3-.4 9.8-6.5 18.1-15 21.8C50.3 56 46.7 64 40 69z"/>
  <path fill="#f27cc2" d="M40 69c-.8.6-1.6 1.1-2.5 1.6-12 6.9-27.2 2.8-34.2-9.2-6.9-12-2.8-27.2 9.1-34.2.8-.5 1.7-.9 2.5-1.3.4 9.8 6.5 18.1 15 21.9C29.7 56 33.3 64 40 69z"/>
  <linearGradient id="a" x1="109.1637" x2="206.9828" y1="65.362" y2="8.9619" gradientTransform="matrix(1 0 0 -1 0 76)" gradientUnits="userSpaceOnUse">
    <stop offset="0" stop-color="#2298bd"/>
    <stop offset="1" stop-color="#0ed7b5"/>
  </linearGradient>
  <path fill="url(#a)" d="M159.2 10.9c-12.7 0-20.6 6.3-23.8 19 4.8-6.3 10.3-8.7 16.7-7.1 3.6.9 6.2 3.5 9.1 6.4 4.7 4.7 10.1 10.2 21.9 10.2 12.7 0 20.6-6.3 23.8-19-4.8 6.3-10.3 8.7-16.7 7.1-3.6-.9-6.2-3.5-9.1-6.4-4.7-4.7-10.1-10.2-21.9-10.2zm-23.8 28.6c-12.7 0-20.6 6.3-23.8 19 4.8-6.3 10.3-8.7 16.7-7.1 3.6.9 6.2 3.5 9.1 6.4 4.7 4.7 10.1 10.2 21.9 10.2 12.7 0 20.6-6.3 23.8-19-4.8 6.3-10.3 8.7-16.7 7.1-3.6-.9-6.2-3.5-9.1-6.4-4.7-4.7-10.1-10.2-21.9-10.2z"/>
  <path fill="#718096" d="M98.2 36.2v4.1h-1.6v-4.1h-3.9v-1.6h3.9v-4.1h1.6v4.1h3.9v1.6h-3.9z"/>
</svg>
