<svg xmlns="http://www.w3.org/2000/svg" viewBox="0 0 1749 336">
    <title>Oh Dear</title>
    <path fill="#e32929" d="M1196.5776 88c34.146 0 65.3546 13.1145 87.8746 36.9149 22.0733 23.3438 33.5947 54.7311 32.473 88.3917l-.6654 19.9146h-187.8982c8.489 32.0188 35.3913 53.1186 68.6057 53.1186 25.6095 0 47.6448-10.0253 60.478-27.4919l12.1013-16.4951 38.4904 29.493-11.9588 16.4854C1274.0811 318.6306 1237.8057 336 1196.5776 336 1129.5214 336 1077 281.6283 1077 212.1991 1077 142.5563 1129.5214 88 1196.5776 88zm-859.6864 8C405.3224 96 461 149.8343 461 216s-55.6776 120-124.1088 120c-59.7762 0-109.817-41.0794-121.5191-95.5726H45V191.902h170.2942C226.8698 137.2488 276.9884 96 336.8912 96zM534.823 0v104.6674c16.2275-10.3784 36.002-15.822 57.7675-15.822C638.9148 88.8453 693 119.9517 693 207.6257V328h-49.823V207.6258c0-27.631-6.7558-47.4181-20.0838-58.8238-10.4962-8.9863-22.8093-10.868-31.2952-10.868-25.9891 0-56.975 12.0873-56.975 69.6918V328H485V0h49.823zM1053 0v326.0341h-49.741v-21.5486C982.8472 319.7165 958.0442 328 932.4016 328 865.453 328 813 275.4456 813 208.3568c0-67.3082 52.453-120.044 119.4016-120.044 25.9322 0 50.7062 8.1308 70.8574 23.0564V0H1053zm407.006 88c25.9514 0 50.8798 8.151 71.253 23.1247V89.978H1581v236.0535h-49.741V304.885C1510.8858 319.8586 1485.9574 328 1460.006 328 1393.2695 328 1341 275.377 1341 208.2007 1341 140.8046 1393.2696 88 1460.006 88zM1749 88v50.0542l-21.2287-.395c-17.1085-.2313-32.7848 5.3282-42.9577 15.1174-8.672 8.3536-13.2532 19.4532-13.2532 32.1233V328H1621V89.9848h50.5604v11.9475C1688.0509 92.7886 1707.4255 88 1728.1735 88H1749zM336.8912 145.0995c-40.4414 0-73.3281 31.8073-73.3281 70.9005 0 39.0932 32.8867 70.9005 73.3281 70.9005 40.4318 0 73.3184-31.8073 73.3184-70.9005 0-39.0932-32.8866-70.9005-73.3184-70.9005zm596.3018-7.9923c-39.5013 0-70.452 31.2922-70.452 71.2496 0 39.7284 30.9507 70.8488 70.452 70.8488 39.2987 0 70.066-31.1204 70.066-70.8488 0-39.9574-30.7673-71.2496-70.066-71.2496zm527.6043-.2491c-39.2794 0-70.0563 31.333-70.0563 71.3426 0 39.7802 30.777 70.9412 70.0563 70.9412 39.511 0 70.4617-31.161 70.4617-70.9412 0-40.0096-30.9506-71.3426-70.4617-71.3426zm-264.2197.4136c-29.9348 0-55.763 18.6711-66.0771 47.0859h133.8273c-9.8674-28.4148-36.342-47.086-67.7502-47.086z"/>
</svg>
